<svg width="480" height="480" viewBox="0 0 480 480" fill="none" xmlns="http://www.w3.org/2000/svg">
<path d="M240 0C107.453 0 0 107.453 0 240C0 372.547 107.453 480 240 480C372.547 480 480 372.547 480 240C479.852 107.516 372.484 0.148438 240 0ZM240 464C116.289 464 16 363.711 16 240C16 116.289 116.289 16 240 16C363.711 16 464 116.289 464 240C463.859 363.652 363.652 463.859 240 464Z" fill="#424E4A"/>
<path d="M256.204 359.531H217.694C211.262 359.531 206.03 354.309 206.03 347.889V261.2H183.563C177.131 261.2 171.898 255.976 171.898 249.558V212.412C171.898 205.992 177.131 200.77 183.563 200.77H206.03V182.168C206.03 163.724 211.833 148.032 222.809 136.791C233.836 125.499 249.245 119.531 267.371 119.531L296.74 119.579C303.161 119.59 308.384 124.812 308.384 131.221V165.71C308.384 172.13 303.154 177.352 296.723 177.352L276.95 177.36C270.919 177.36 269.384 178.566 269.055 178.936C268.514 179.55 267.87 181.284 267.87 186.072V200.768H295.237C297.298 200.768 299.294 201.275 301.009 202.231C304.71 204.294 307.01 208.196 307.01 212.413L306.995 249.56C306.995 255.976 301.763 261.198 295.331 261.198H267.87V347.889C267.87 354.309 262.636 359.531 256.204 359.531V359.531ZM220.127 345.461H253.771V254.901C253.771 250.615 257.266 247.128 261.559 247.128H292.898L292.911 214.839H261.557C257.264 214.839 253.771 211.353 253.771 207.067V186.072C253.771 180.575 254.33 174.324 258.488 169.625C263.511 163.945 271.427 163.29 276.946 163.29L294.287 163.282V133.645L267.36 133.601C238.23 133.601 220.127 152.212 220.127 182.168V207.067C220.127 211.351 216.634 214.839 212.341 214.839H185.996V247.128H212.341C216.634 247.128 220.127 250.615 220.127 254.901V345.461ZM296.712 133.649H296.714H296.712Z" fill="#424E4A"/>
<path d="M256.204 359.531H217.694C211.262 359.531 206.03 354.309 206.03 347.889V261.2H183.563C177.131 261.2 171.898 255.976 171.898 249.558V212.412C171.898 205.992 177.131 200.77 183.563 200.77H206.03V182.168C206.03 163.724 211.833 148.032 222.809 136.791C233.836 125.499 249.245 119.531 267.371 119.531L296.74 119.579C303.161 119.59 308.384 124.812 308.384 131.221V165.71C308.384 172.13 303.154 177.352 296.723 177.352L276.95 177.36C270.919 177.36 269.384 178.566 269.055 178.936C268.514 179.55 267.87 181.284 267.87 186.072V200.768H295.237C297.298 200.768 299.294 201.275 301.009 202.231C304.71 204.294 307.01 208.196 307.01 212.413L306.995 249.56C306.995 255.976 301.763 261.198 295.331 261.198H267.87V347.889C267.87 354.309 262.636 359.531 256.204 359.531V359.531ZM220.127 345.461H253.771V254.901C253.771 250.615 257.266 247.128 261.559 247.128H292.898L292.911 214.839H261.557C257.264 214.839 253.771 211.353 253.771 207.067V186.072C253.771 180.575 254.33 174.324 258.488 169.625C263.511 163.945 271.427 163.29 276.946 163.29L294.287 163.282V133.645L267.36 133.601C238.23 133.601 220.127 152.212 220.127 182.168V207.067C220.127 211.351 216.634 214.839 212.341 214.839H185.996V247.128H212.341C216.634 247.128 220.127 250.615 220.127 254.901V345.461ZM296.712 133.649H296.714H296.712Z" fill="url(#paint0_linear)"/>
<defs>
<linearGradient id="paint0_linear" x1="174.173" y1="116.532" x2="377.422" y2="243.681" gradientUnits="userSpaceOnUse">
<stop stop-color="#4C9079"/>
<stop offset="1" stop-color="#424E4A"/>
</linearGradient>
</defs>
</svg>
