<svg width="480" height="480" viewBox="0 0 480 480" fill="none" xmlns="http://www.w3.org/2000/svg">
<path d="M240 0C107.453 0 0 107.453 0 240C0 372.547 107.453 480 240 480C372.547 480 480 372.547 480 240C479.852 107.516 372.484 0.148438 240 0ZM240 464C116.289 464 16 363.711 16 240C16 116.289 116.289 16 240 16C363.711 16 464 116.289 464 240C463.859 363.652 363.652 463.859 240 464Z" fill="#424E4A"/>
<g clip-path="url(#clip0)">
<path d="M305.9 360C306.93 360 353.52 359.99 352.5 359.99C356.64 359.99 360 356.63 360 352.49C356.5 273.92 378.42 191.01 296.62 191.01C280.89 191.01 268.36 196.38 259.33 203.48C259.33 188.87 243.54 196.95 207.09 194.78C202.95 194.78 199.59 198.14 199.59 202.28C202.61 343.94 192.85 359.99 207.09 359.99H253.69C267.22 359.99 258.61 340.91 261.19 278.11C261.19 252.17 268.69 247.09 281.65 247.09C295.99 247.09 298.4 257.05 298.4 279.37C300.97 341.04 292.42 360 305.9 360ZM281.65 232.09C236.74 232.09 246.19 281.47 246.19 344.99H214.59V209.78H244.33V222.76C244.33 229.96 255.3 233.5 259.12 226.26C264.04 216.92 276.82 206.01 296.62 206.01C331.89 206.01 345 223.34 345 269.97V345H313.4C313.4 273.56 320.96 232.09 281.65 232.09V232.09Z" fill="#424E4A"/>
<path d="M305.9 360C306.93 360 353.52 359.99 352.5 359.99C356.64 359.99 360 356.63 360 352.49C356.5 273.92 378.42 191.01 296.62 191.01C280.89 191.01 268.36 196.38 259.33 203.48C259.33 188.87 243.54 196.95 207.09 194.78C202.95 194.78 199.59 198.14 199.59 202.28C202.61 343.94 192.85 359.99 207.09 359.99H253.69C267.22 359.99 258.61 340.91 261.19 278.11C261.19 252.17 268.69 247.09 281.65 247.09C295.99 247.09 298.4 257.05 298.4 279.37C300.97 341.04 292.42 360 305.9 360ZM281.65 232.09C236.74 232.09 246.19 281.47 246.19 344.99H214.59V209.78H244.33V222.76C244.33 229.96 255.3 233.5 259.12 226.26C264.04 216.92 276.82 206.01 296.62 206.01C331.89 206.01 345 223.34 345 269.97V345H313.4C313.4 273.56 320.96 232.09 281.65 232.09V232.09Z" fill="url(#paint0_linear)"/>
<path d="M131.22 194.79C117.02 194.79 126.74 210.64 123.72 352.5C123.72 356.64 127.08 360 131.22 360H177.87C192.07 360 182.35 344.15 185.37 202.29C185.37 189.34 166.56 196.98 131.22 194.79V194.79ZM170.37 345H138.72V209.79H170.37V345Z" fill="#424E4A"/>
<path d="M131.22 194.79C117.02 194.79 126.74 210.64 123.72 352.5C123.72 356.64 127.08 360 131.22 360H177.87C192.07 360 182.35 344.15 185.37 202.29C185.37 189.34 166.56 196.98 131.22 194.79V194.79ZM170.37 345H138.72V209.79H170.37V345Z" fill="url(#paint1_linear)"/>
<path d="M154.52 120C108.76 120 109.04 189.29 154.52 189.29C199.97 189.29 200.33 120 154.52 120ZM154.52 174.29C128.84 174.29 128.6 135 154.52 135C180.49 135 180.16 174.29 154.52 174.29Z" fill="#424E4A"/>
<path d="M154.52 120C108.76 120 109.04 189.29 154.52 189.29C199.97 189.29 200.33 120 154.52 120ZM154.52 174.29C128.84 174.29 128.6 135 154.52 135C180.49 135 180.16 174.29 154.52 174.29Z" fill="url(#paint2_linear)"/>
</g>
<defs>
<linearGradient id="paint0_linear" x1="201.779" y1="188.898" x2="360.746" y2="355.638" gradientUnits="userSpaceOnUse">
<stop stop-color="#4C9079"/>
<stop offset="1" stop-color="#424E4A"/>
</linearGradient>
<linearGradient id="paint1_linear" x1="124.283" y1="192.437" x2="234.857" y2="238.454" gradientUnits="userSpaceOnUse">
<stop stop-color="#4C9079"/>
<stop offset="1" stop-color="#424E4A"/>
</linearGradient>
<linearGradient id="paint2_linear" x1="121.446" y1="119.134" x2="186.476" y2="189.79" gradientUnits="userSpaceOnUse">
<stop stop-color="#4C9079"/>
<stop offset="1" stop-color="#424E4A"/>
</linearGradient>
<clipPath id="clip0">
<rect x="120" y="120" width="240" height="240" fill="white"/>
</clipPath>
</defs>
</svg>
