<svg width="480" height="480" viewBox="0 0 480 480" fill="none" xmlns="http://www.w3.org/2000/svg">
<path d="M240 0C107.453 0 0 107.453 0 240C0 372.547 107.453 480 240 480C372.547 480 480 372.547 480 240C479.852 107.516 372.484 0.148438 240 0ZM240 464C116.289 464 16 363.711 16 240C16 116.289 116.289 16 240 16C363.711 16 464 116.289 464 240C463.859 363.652 363.652 463.859 240 464Z" fill="#424E4A"/>
<path d="M337.5 150H142.5C130.093 150 120 160.093 120 172.5V307.5C120 319.907 130.093 330 142.5 330H337.5C349.907 330 360 319.907 360 307.5V172.5C360 160.093 349.907 150 337.5 150V150ZM337.5 165C338.519 165 339.488 165.211 340.374 165.58L240 252.576L139.625 165.58C140.511 165.212 141.481 165 142.5 165H337.5ZM337.5 315H142.5C138.362 315 135 311.638 135 307.499V181.428L235.085 268.169C236.499 269.392 238.25 270 240 270C241.75 270 243.501 269.392 244.915 268.169L345 181.428V307.5C345 311.638 341.638 315 337.5 315V315Z" fill="#424E4A"/>
<path d="M337.5 150H142.5C130.093 150 120 160.093 120 172.5V307.5C120 319.907 130.093 330 142.5 330H337.5C349.907 330 360 319.907 360 307.5V172.5C360 160.093 349.907 150 337.5 150V150ZM337.5 165C338.519 165 339.488 165.211 340.374 165.58L240 252.576L139.625 165.58C140.511 165.212 141.481 165 142.5 165H337.5ZM337.5 315H142.5C138.362 315 135 311.638 135 307.499V181.428L235.085 268.169C236.499 269.392 238.25 270 240 270C241.75 270 243.501 269.392 244.915 268.169L345 181.428V307.5C345 311.638 341.638 315 337.5 315V315Z" fill="url(#paint0_linear)"/>
<defs>
<linearGradient id="paint0_linear" x1="124" y1="147.751" x2="281.799" y2="379.197" gradientUnits="userSpaceOnUse">
<stop stop-color="#4C9079"/>
<stop offset="1" stop-color="#424E4A"/>
</linearGradient>
</defs>
</svg>
