<svg width="193" height="193" viewBox="0 0 193 193" fill="none" xmlns="http://www.w3.org/2000/svg">
<path d="M101.198 78.1759C100.876 83.9252 100.7 90.0116 100.7 96.339C100.7 102.666 100.876 108.753 101.198 114.502L101.005 114.502L21.913 114.486L21.8969 114.502C19.5362 114.486 17.5609 107.083 17.4003 97.704C17.3843 97.2383 17.3843 96.7886 17.3843 96.339C17.3843 86.318 19.4078 78.1599 21.8969 78.1759L101.198 78.1759Z" fill="#4C9079"/>
<path d="M21.8969 78.1759C20.7182 78.1695 19.6486 80.0067 18.8425 82.9937L96.3799 82.9937C96.0587 88.7429 95.882 94.8294 95.882 101.157C95.8836 105.764 96.0041 110.185 96.1791 114.5H100.997L101.19 114.5C100.868 108.751 100.692 102.665 100.692 96.3374C100.692 90.01 100.868 83.9236 101.19 78.1743L21.8969 78.1759Z" fill="#4C9079"/>
<path d="M184.85 91.746C186.195 92.893 186.97 94.5716 186.97 96.339C186.97 98.1064 186.195 99.785 184.85 100.932L181.719 103.389L114.013 156.674L113.981 156.706C113.487 157.259 112.794 157.594 112.054 157.637C106.963 157.621 102.627 139.474 101.198 114.502C100.876 108.753 100.7 102.666 100.7 96.339C100.7 90.0116 100.876 83.9252 101.198 78.1759C102.193 60.9283 104.57 46.9246 107.621 39.9227C108.986 36.7912 110.48 35.0407 112.054 35.0407C112.787 35.0848 113.476 35.4063 113.981 35.9401L114.029 35.9882L113.965 35.9561L184.85 91.746Z" fill="#4C9079"/>
<path d="M113.965 35.9561L114.029 35.9882L113.981 35.9401C113.476 35.4063 112.787 35.0848 112.054 35.0407C110.48 35.0407 108.986 36.7912 107.621 39.9228L107.604 39.9404C108.19 40.0497 108.73 40.3315 109.155 40.7498L109.203 40.798L109.139 40.7659L180.025 96.5558C181.994 98.2371 182.668 100.99 181.698 103.391L181.709 103.379L184.841 100.922C186.185 99.7754 186.96 98.0968 186.96 96.3294C186.96 94.562 186.185 92.8833 184.841 91.7364L113.965 35.9561Z" fill="#4C9079"/>
<path d="M142.799 76.517C143.887 77.1419 145.275 76.7665 145.9 75.6787C146.525 74.5909 146.15 73.2025 145.062 72.5777L139.52 69.3931C138.432 68.7674 137.043 69.142 136.417 70.2298C135.792 71.3176 136.166 72.7067 137.254 73.3325L142.799 76.517Z" fill="#4C9079"/>
<path d="M153.887 82.8861L167.739 90.8387C168.444 91.2618 169.323 91.2709 170.036 90.8625C170.75 90.4542 171.187 89.6921 171.179 88.87C171.171 88.0479 170.72 87.2942 169.999 86.8993L156.14 78.9404C155.435 78.5173 154.556 78.5081 153.843 78.9165C153.129 79.3249 152.692 80.087 152.7 80.9091C152.708 81.7312 153.159 82.4849 153.88 82.8797L153.887 82.8861Z" fill="#4C9079"/>
<path d="M91.9989 89.5266C92.8359 89.5693 93.6283 89.1476 94.0605 88.4296C94.4926 87.7115 94.4942 86.8138 94.0646 86.0943C93.635 85.3747 92.844 84.9502 92.0069 84.9899L55.8222 84.9835C54.5834 85.005 53.5905 86.0153 53.5905 87.2543C53.5905 88.4932 54.5834 89.5035 55.8222 89.525L91.9989 89.5266Z" fill="#4C9079"/>
<path d="M39.9957 84.969C38.757 84.9905 37.7641 86.0009 37.7641 87.2398C37.7641 88.4787 38.757 89.489 39.9957 89.5106C47.2224 89.5106 47.4906 89.7242 48.3755 88.8393C49.0248 88.1897 49.2189 87.213 48.8674 86.3645C48.5159 85.516 47.688 84.9627 46.7695 84.9626L39.9957 84.969Z" fill="#4C9079"/>
<path d="M112.05 159.898C113.381 159.863 114.644 159.309 115.571 158.353C192.239 97.9947 186.374 102.645 186.851 102.168C188.48 100.513 189.341 98.2522 189.226 95.9331C189.112 93.6141 188.032 91.4488 186.249 89.9618C186.249 89.9618 116.473 35.0311 115.771 34.5349C115.65 34.3831 115.509 34.2476 115.352 34.1318C114.465 33.2752 113.287 32.7853 112.054 32.7603C102.979 32.7587 99.9932 61.3747 99.065 75.8923L21.9066 75.9052C15.9422 75.8987 15.1199 90.4003 15.1119 96.3342C15.1103 99.7468 15.4395 116.768 21.9066 116.766L99.065 116.766C99.9948 131.282 102.983 159.898 112.05 159.898V159.898ZM19.6535 96.3342C19.6551 87.198 21.3252 81.6255 22.292 80.4467L98.8353 80.4451C98.2938 91.034 98.2905 101.644 98.8257 112.233L22.2904 112.23C21.3156 111.036 19.6535 105.472 19.6535 96.3342V96.3342ZM103.47 114.369C102.807 102.355 102.806 90.3146 103.468 78.3012C105.042 50.3259 109.836 37.7949 112.023 37.3067C112.086 37.3244 172.048 84.5804 183.392 93.4901C184.207 94.1989 184.679 95.2236 184.687 96.3039C184.695 97.3841 184.239 98.4157 183.434 99.1365C107.61 158.83 112.266 155.228 112.067 155.354C109.849 154.87 105.045 142.346 103.47 114.369V114.369Z" fill="#4C9079"/>
</svg>
