<svg width="512" height="511" viewBox="0 0 512 511" fill="none" xmlns="http://www.w3.org/2000/svg">
<path d="M368.129 511.984C362.945 511.984 357.711 510.977 352.715 508.902C337.703 502.676 328.008 488.16 328.008 471.926V380.004C240.391 380.004 158.023 345.887 96.0703 283.934C34.1172 221.98 0 139.609 0 51.9961V20C0 8.95312 8.95312 0 20 0C31.0469 0 40 8.95312 40 20V51.9961C40 210.805 169.199 340.004 328.004 340.004C350.062 340.004 368.008 357.945 368.008 380.004V471.926V471.938C368.039 471.953 368.078 471.969 368.113 471.98C368.125 471.965 368.141 471.953 368.156 471.938L466.117 374.184C469.91 370.398 472 365.359 472 360.004C472 354.645 469.91 349.609 466.117 345.824L368.156 248.066C368.141 248.051 368.125 248.039 368.109 248.023C368.078 248.035 368.039 248.051 368.008 248.066V248.078V270C368.008 281.047 359.051 290 348.008 290C336.961 290 328.008 281.047 328.008 270V248.078C328.008 231.844 337.703 217.328 352.715 211.102C367.742 204.867 384.895 208.262 396.41 219.754L494.371 317.508C505.738 328.852 512 343.945 512 360.004C512 376.062 505.738 391.152 494.371 402.496L396.41 500.25C388.727 507.922 378.527 511.984 368.129 511.984V511.984Z" fill="#27AE60"/>
<path d="M368.129 511.984C362.945 511.984 357.711 510.977 352.715 508.902C337.703 502.676 328.008 488.16 328.008 471.926V380.004C240.391 380.004 158.023 345.887 96.0703 283.934C34.1172 221.98 0 139.609 0 51.9961V20C0 8.95312 8.95312 0 20 0C31.0469 0 40 8.95312 40 20V51.9961C40 210.805 169.199 340.004 328.004 340.004C350.062 340.004 368.008 357.945 368.008 380.004V471.926V471.938C368.039 471.953 368.078 471.969 368.113 471.98C368.125 471.965 368.141 471.953 368.156 471.938L466.117 374.184C469.91 370.398 472 365.359 472 360.004C472 354.645 469.91 349.609 466.117 345.824L368.156 248.066C368.141 248.051 368.125 248.039 368.109 248.023C368.078 248.035 368.039 248.051 368.008 248.066V248.078V270C368.008 281.047 359.051 290 348.008 290C336.961 290 328.008 281.047 328.008 270V248.078C328.008 231.844 337.703 217.328 352.715 211.102C367.742 204.867 384.895 208.262 396.41 219.754L494.371 317.508C505.738 328.852 512 343.945 512 360.004C512 376.062 505.738 391.152 494.371 402.496L396.41 500.25C388.727 507.922 378.527 511.984 368.129 511.984V511.984Z" fill="url(#paint0_linear)"/>
<defs>
<linearGradient id="paint0_linear" x1="-89" y1="104" x2="298" y2="549" gradientUnits="userSpaceOnUse">
<stop stop-color="#424E4A"/>
<stop offset="1" stop-color="#4C9079"/>
</linearGradient>
</defs>
</svg>
