<svg width="480" height="480" viewBox="0 0 480 480" fill="none" xmlns="http://www.w3.org/2000/svg">
<path d="M240 0C107.453 0 0 107.453 0 240C0 372.547 107.453 480 240 480C372.547 480 480 372.547 480 240C479.852 107.516 372.484 0.148438 240 0ZM240 464C116.289 464 16 363.711 16 240C16 116.289 116.289 16 240 16C363.711 16 464 116.289 464 240C463.859 363.652 363.652 463.859 240 464Z" fill="#424E4A"/>
<path d="M345.176 269.266L277.273 257.266C273.836 256.66 270.406 258.348 268.793 261.441L252.328 292.992C223.195 280.09 199.914 256.797 187.023 227.656L218.543 211.191C221.637 209.578 223.324 206.148 222.719 202.711L210.719 134.816C210.344 132.68 209.117 130.789 207.32 129.574C190.152 117.996 167.996 116.832 149.711 126.551C131.426 136.273 120 155.293 120 176C120.113 277.574 202.426 359.887 304 360C324.711 359.996 343.73 348.562 353.449 330.273C363.164 311.98 361.992 289.82 350.398 272.656C349.187 270.867 347.305 269.641 345.176 269.266ZM304 344C211.262 343.895 136.105 268.738 136 176C135.996 161.789 143.535 148.645 155.801 141.465C168.066 134.289 183.223 134.16 195.609 141.129L205.953 199.734L173.152 216.855C169.559 218.73 167.934 222.992 169.367 226.785C183.992 265.473 214.523 296.023 253.207 310.664C257 312.098 261.262 310.473 263.137 306.879L280.266 274.078L338.871 284.426C345.824 296.809 345.684 311.949 338.512 324.207C331.336 336.461 318.203 343.996 304 344Z" fill="#424E4A"/>
<path d="M345.176 269.266L277.273 257.266C273.836 256.66 270.406 258.348 268.793 261.441L252.328 292.992C223.195 280.09 199.914 256.797 187.023 227.656L218.543 211.191C221.637 209.578 223.324 206.148 222.719 202.711L210.719 134.816C210.344 132.68 209.117 130.789 207.32 129.574C190.152 117.996 167.996 116.832 149.711 126.551C131.426 136.273 120 155.293 120 176C120.113 277.574 202.426 359.887 304 360C324.711 359.996 343.73 348.562 353.449 330.273C363.164 311.98 361.992 289.82 350.398 272.656C349.187 270.867 347.305 269.641 345.176 269.266ZM304 344C211.262 343.895 136.105 268.738 136 176C135.996 161.789 143.535 148.645 155.801 141.465C168.066 134.289 183.223 134.16 195.609 141.129L205.953 199.734L173.152 216.855C169.559 218.73 167.934 222.992 169.367 226.785C183.992 265.473 214.523 296.023 253.207 310.664C257 312.098 261.262 310.473 263.137 306.879L280.266 274.078L338.871 284.426C345.824 296.809 345.684 311.949 338.512 324.207C331.336 336.461 318.203 343.996 304 344Z" fill="url(#paint0_linear)"/>
<defs>
<linearGradient id="paint0_linear" x1="124" y1="117" x2="349" y2="364.5" gradientUnits="userSpaceOnUse">
<stop stop-color="#4C9079"/>
<stop offset="1" stop-color="#424E4A"/>
</linearGradient>
</defs>
</svg>
