<svg width="521" height="521" viewBox="0 0 521 521" fill="none" xmlns="http://www.w3.org/2000/svg">
<g filter="url(#filter0_d)">
<g clip-path="url(#clip0)">
<path d="M148.152 513.986C153.346 513.986 158.59 512.977 163.596 510.898C178.637 504.66 188.352 490.116 188.352 473.85V381.748C276.14 381.748 358.668 347.564 420.742 285.49C482.816 223.416 517 140.884 517 53.0996V21.041C517 9.97257 508.029 1.00195 496.961 1.00195C485.892 1.00195 476.922 9.97257 476.922 21.041V53.0996C476.922 212.218 347.47 341.67 188.355 341.67C166.254 341.67 148.273 359.646 148.273 381.748V473.85V473.861C148.242 473.877 148.203 473.893 148.168 473.904C148.156 473.889 148.14 473.877 148.125 473.861L49.9724 375.916C46.1721 372.124 44.0781 367.075 44.0781 361.709C44.0781 356.339 46.1721 351.294 49.9724 347.502L148.125 249.553C148.14 249.537 148.156 249.525 148.172 249.51C148.203 249.522 148.242 249.537 148.273 249.553V249.565V271.529C148.273 282.598 157.248 291.568 168.312 291.568C179.381 291.568 188.352 282.598 188.352 271.529V249.565C188.352 233.299 178.637 218.755 163.596 212.516C148.54 206.269 131.354 209.67 119.816 221.185L21.6633 319.13C10.2739 330.496 4 345.619 4 361.709C4 377.799 10.2739 392.918 21.6633 404.284L119.816 502.229C127.514 509.916 137.733 513.986 148.152 513.986V513.986Z" fill="#27AE60"/>
<path d="M148.152 513.986C153.346 513.986 158.59 512.977 163.596 510.898C178.637 504.66 188.352 490.116 188.352 473.85V381.748C276.14 381.748 358.668 347.564 420.742 285.49C482.816 223.416 517 140.884 517 53.0996V21.041C517 9.97257 508.029 1.00195 496.961 1.00195C485.892 1.00195 476.922 9.97257 476.922 21.041V53.0996C476.922 212.218 347.47 341.67 188.355 341.67C166.254 341.67 148.273 359.646 148.273 381.748V473.85V473.861C148.242 473.877 148.203 473.893 148.168 473.904C148.156 473.889 148.14 473.877 148.125 473.861L49.9724 375.916C46.1721 372.124 44.0781 367.075 44.0781 361.709C44.0781 356.339 46.1721 351.294 49.9724 347.502L148.125 249.553C148.14 249.537 148.156 249.525 148.172 249.51C148.203 249.522 148.242 249.537 148.273 249.553V249.565V271.529C148.273 282.598 157.248 291.568 168.312 291.568C179.381 291.568 188.352 282.598 188.352 271.529V249.565C188.352 233.299 178.637 218.755 163.596 212.516C148.54 206.269 131.354 209.67 119.816 221.185L21.6633 319.13C10.2739 330.496 4 345.619 4 361.709C4 377.799 10.2739 392.918 21.6633 404.284L119.816 502.229C127.514 509.916 137.733 513.986 148.152 513.986V513.986Z" fill="url(#paint0_linear)"/>
</g>
</g>
<defs>
<filter id="filter0_d" x="0" y="0" width="521" height="521" filterUnits="userSpaceOnUse" color-interpolation-filters="sRGB">
<feFlood flood-opacity="0" result="BackgroundImageFix"/>
<feColorMatrix in="SourceAlpha" type="matrix" values="0 0 0 0 0 0 0 0 0 0 0 0 0 0 0 0 0 0 127 0"/>
<feOffset dy="4"/>
<feGaussianBlur stdDeviation="2"/>
<feColorMatrix type="matrix" values="0 0 0 0 0 0 0 0 0 0 0 0 0 0 0 0 0 0 0.25 0"/>
<feBlend mode="normal" in2="BackgroundImageFix" result="effect1_dropShadow"/>
<feBlend mode="normal" in="SourceGraphic" in2="effect1_dropShadow" result="shape"/>
</filter>
<linearGradient id="paint0_linear" x1="606.174" y1="105.205" x2="218.418" y2="551.074" gradientUnits="userSpaceOnUse">
<stop stop-color="#424E4A"/>
<stop offset="1" stop-color="#4C9079"/>
</linearGradient>
<clipPath id="clip0">
<rect width="513" height="513" transform="matrix(-1 0 0 1 517 0)" fill="white"/>
</clipPath>
</defs>
</svg>
