<svg width="193" height="193" viewBox="0 0 193 193" fill="none" xmlns="http://www.w3.org/2000/svg">
<path d="M91.4901 114.512C91.8112 108.763 91.9879 102.676 91.9879 96.3488C91.9879 90.0215 91.8112 83.935 91.49 78.1858L91.6828 78.1858L170.775 78.2019L170.791 78.1858C173.151 78.2019 175.127 85.6052 175.287 94.9838C175.303 95.4495 175.303 95.8992 175.303 96.3488C175.303 106.37 173.28 114.528 170.791 114.512L91.4901 114.512Z" fill="#4C9079"/>
<path d="M170.791 114.512C171.969 114.518 173.039 112.681 173.845 109.694L96.3078 109.694C96.629 103.945 96.8057 97.8584 96.8057 91.5311C96.8041 86.9237 96.6836 82.5025 96.5086 78.1874H91.6908L91.4981 78.1874C91.8193 83.9366 91.9959 90.0231 91.9959 96.3504C91.9959 102.678 91.8193 108.764 91.4981 114.513L170.791 114.512Z" fill="#4C9079"/>
<path d="M7.83728 100.942C6.49257 99.7949 5.71802 98.1162 5.71802 96.3488C5.71802 94.5814 6.49257 92.9028 7.83728 91.7559L10.9688 89.2988L78.6747 36.0142L78.7069 35.982C79.2004 35.4284 79.8935 35.0934 80.634 35.0506C85.7248 35.0667 90.0608 53.2136 91.49 78.1858C91.8112 83.935 91.9879 90.0215 91.9879 96.3488C91.9879 102.676 91.8112 108.763 91.49 114.512C90.4944 131.76 88.1176 145.763 85.0663 152.765C83.7013 155.897 82.2078 157.647 80.634 157.647C79.9007 157.603 79.2116 157.281 78.7069 156.748L78.6587 156.7L78.7229 156.732L7.83728 100.942Z" fill="#4C9079"/>
<path d="M78.7229 156.732L78.6587 156.7L78.7069 156.748C79.2117 157.281 79.9007 157.603 80.634 157.647C82.2078 157.647 83.7013 155.897 85.0663 152.765L85.084 152.747C84.4978 152.638 83.9576 152.356 83.5327 151.938L83.4845 151.89L83.5487 151.922L12.6631 96.132C10.6934 94.4507 10.0196 91.6983 10.9897 89.2972L10.9785 89.3084L7.84692 91.7655C6.5022 92.9124 5.72766 94.5911 5.72766 96.3585C5.72766 98.1259 6.5022 99.8045 7.84692 100.951L78.7229 156.732Z" fill="#4C9079"/>
<path d="M49.8885 116.171C48.8007 115.546 47.4123 115.921 46.7874 117.009C46.1626 118.097 46.5379 119.485 47.6257 120.11L53.1678 123.295C54.2556 123.92 55.6447 123.546 56.2704 122.458C56.8962 121.37 56.5216 119.981 55.4338 119.355L49.8885 116.171Z" fill="#4C9079"/>
<path d="M38.8012 109.802L24.9484 101.849C24.2436 101.426 23.365 101.417 22.6515 101.825C21.938 102.234 21.5009 102.996 21.5086 103.818C21.5164 104.64 21.9678 105.394 22.6889 105.788L36.5481 113.747C37.253 114.171 38.1315 114.18 38.845 113.771C39.5585 113.363 39.9956 112.601 39.9879 111.779C39.9801 110.957 39.5287 110.203 38.8076 109.808L38.8012 109.802Z" fill="#4C9079"/>
<path d="M100.689 103.161C99.8518 103.118 99.0594 103.54 98.6272 104.258C98.195 104.976 98.1935 105.874 98.6231 106.594C99.0527 107.313 99.8436 107.738 100.681 107.698L136.866 107.704C138.104 107.683 139.097 106.672 139.097 105.434C139.097 104.195 138.104 103.184 136.866 103.163L100.689 103.161Z" fill="#4C9079"/>
<path d="M152.692 107.719C153.931 107.697 154.924 106.687 154.924 105.448C154.924 104.209 153.931 103.199 152.692 103.177C145.465 103.177 145.197 102.964 144.312 103.849C143.663 104.498 143.469 105.475 143.82 106.323C144.172 107.172 145 107.725 145.918 107.725L152.692 107.719Z" fill="#4C9079"/>
<path d="M80.6372 32.7894C79.307 32.8244 78.0433 33.379 77.117 34.3344C0.448436 94.6931 6.31328 90.0424 5.83632 90.5193C4.20807 92.1746 3.34681 94.4357 3.46122 96.7547C3.57563 99.0737 4.65528 101.239 6.43854 102.726C6.43854 102.726 76.2145 157.657 76.9163 158.153C77.0381 158.305 77.179 158.44 77.3354 158.556C78.2227 159.413 79.4009 159.903 80.634 159.928C89.7091 159.929 92.6945 131.313 93.6227 116.796L170.781 116.783C176.746 116.789 177.568 102.288 177.576 96.3537C177.577 92.9411 177.248 75.9198 170.781 75.9214L93.6227 75.9214C92.6929 61.4055 89.7043 32.7894 80.6372 32.7894V32.7894ZM173.034 96.3537C173.033 105.49 171.362 111.062 170.396 112.241L93.8524 112.243C94.3939 101.654 94.3971 91.0442 93.862 80.455L170.397 80.4582C171.372 81.6514 173.034 87.2159 173.034 96.3537V96.3537ZM89.2177 78.3191C89.8808 90.3324 89.8814 102.373 89.2193 114.387C87.6455 142.362 82.8518 154.893 80.6645 155.381C80.6019 155.363 20.6398 108.107 9.29548 99.1978C8.48027 98.489 8.00872 97.4642 8.00073 96.384C7.99274 95.3037 8.44908 94.2721 9.25373 93.5513C85.0776 33.8574 80.422 37.4595 80.6211 37.3342C82.8389 37.8176 87.6423 50.3422 89.2177 78.3191V78.3191Z" fill="#4C9079"/>
</svg>
